<svg width="11" height="13" viewBox="0 0 11 13" fill="none" xmlns="http://www.w3.org/2000/svg">
<path d="M1.2345 7.29688C0.921997 7.29688 0.671997 7.17188 0.484497 6.92188C0.296997 6.67188 0.171997 6.39062 0.109497 6.07812C0.0469971 5.73438 0.0626221 5.42188 0.156372 5.14062C0.281372 4.82812 0.484497 4.625 0.765747 4.53125H4.047C4.047 3.9375 4.047 3.45312 4.047 3.07812C4.07825 2.70312 4.09387 2.42188 4.09387 2.23438C4.12512 2.04688 4.14075 1.92188 4.14075 1.85938C4.14075 1.79688 4.14075 1.75 4.14075 1.71875C4.14075 1.40625 4.26575 1.15625 4.51575 0.96875C4.76575 0.78125 5.047 0.65625 5.3595 0.59375C5.70325 0.53125 6.01575 0.5625 6.297 0.6875C6.6095 0.78125 6.81262 0.96875 6.90637 1.25L6.8595 4.53125H9.81262C10.2501 4.53125 10.5314 4.6875 10.6564 5C10.8126 5.3125 10.8595 5.65625 10.797 6.03125C10.7657 6.375 10.672 6.6875 10.5157 6.96875C10.3595 7.25 10.2189 7.375 10.0939 7.34375C9.43762 7.34375 8.84387 7.34375 8.31262 7.34375C7.78137 7.3125 7.28137 7.29688 6.81262 7.29688L6.76575 11C6.672 11.375 6.46887 11.6562 6.15637 11.8438C5.87512 12.0312 5.56262 12.1406 5.21887 12.1719C4.90637 12.1719 4.6095 12.1094 4.32825 11.9844C4.07825 11.8281 3.95325 11.5938 3.95325 11.2812C3.95325 10.4688 3.95325 9.73438 3.95325 9.07812C3.95325 8.42188 3.96887 7.82812 4.00012 7.29688H1.2345Z" fill="#6B3E81"/>
</svg>
