<svg width="12" height="4" viewBox="0 0 12 4" fill="none" xmlns="http://www.w3.org/2000/svg">
<path d="M2.00012 3.29688C1.68762 3.29688 1.43762 3.17188 1.25012 2.92188C1.06262 2.67188 0.937622 2.39062 0.875122 2.07812C0.812622 1.73438 0.828247 1.42188 0.921997 1.14062C1.047 0.828125 1.25012 0.625 1.53137 0.53125H10.5782C10.9532 0.625 11.2345 0.828125 11.422 1.14062C11.6095 1.42188 11.7032 1.73438 11.7032 2.07812C11.7345 2.39062 11.672 2.6875 11.5157 2.96875C11.3907 3.21875 11.172 3.34375 10.8595 3.34375C8.64075 3.3125 6.93762 3.29688 5.75012 3.29688C4.56262 3.26562 3.68762 3.25 3.12512 3.25C2.59387 3.25 2.28137 3.26562 2.18762 3.29688C2.09387 3.29688 2.03137 3.29688 2.00012 3.29688Z" fill="#6B3E81"/>
</svg>
