<?xml version="1.0" standalone="no"?>
<!DOCTYPE svg PUBLIC "-//W3C//DTD SVG 20010904//EN"
 "http://www.w3.org/TR/2001/REC-SVG-20010904/DTD/svg10.dtd">
<svg version="1.0" xmlns="http://www.w3.org/2000/svg"
 width="2700.000000pt" height="2700.000000pt" viewBox="0 0 2700.000000 2700.000000"
 preserveAspectRatio="xMidYMid meet">
<metadata>
Created by potrace 1.14, written by Peter Selinger 2001-2017
</metadata>
<g transform="translate(0.000000,2700.000000) scale(0.100000,-0.100000)"
fill="#000000" stroke="none">
<path d="M1110 25440 c0 -5 -7 -7 -15 -4 -8 4 -15 2 -15 -4 0 -5 -6 -9 -13 -8
-21 2 -101 -77 -122 -120 -29 -60 -27 -183 5 -254 13 -30 26 -57 29 -60 12
-10 31 -50 31 -64 0 -8 3 -16 8 -18 4 -1 31 -50 61 -108 30 -58 57 -107 60
-110 3 -3 7 -12 9 -20 2 -8 11 -23 19 -32 9 -10 13 -18 9 -18 -4 0 2 -13 14
-30 12 -16 18 -30 14 -30 -4 0 0 -8 8 -17 17 -20 78 -149 78 -164 0 -6 4 -8 9
-5 5 3 11 -7 14 -23 3 -16 13 -35 21 -44 8 -8 12 -17 9 -21 -3 -3 2 -15 11
-25 10 -11 19 -25 20 -33 1 -7 12 -33 23 -58 11 -25 31 -67 44 -95 13 -27 22
-53 21 -57 -1 -5 3 -8 8 -8 5 0 9 -3 8 -7 -1 -8 9 -35 41 -106 10 -23 29 -67
41 -97 12 -30 27 -66 33 -80 6 -14 11 -28 13 -32 1 -5 3 -10 4 -13 1 -3 3 -8
4 -12 1 -5 12 -30 24 -57 12 -26 28 -69 36 -95 8 -25 20 -59 27 -76 7 -16 13
-32 14 -35 2 -6 24 -60 32 -80 3 -8 5 -19 4 -24 -1 -5 2 -12 7 -15 4 -3 19
-40 32 -81 13 -41 27 -79 32 -84 4 -6 8 -19 8 -31 0 -12 4 -25 9 -31 4 -5 14
-31 21 -59 7 -27 17 -54 21 -60 4 -5 7 -12 7 -15 0 -9 23 -94 37 -135 17 -50
44 -143 50 -172 7 -31 10 -42 39 -158 15 -55 28 -109 30 -120 2 -11 11 -47 19
-80 15 -57 45 -197 53 -240 6 -37 24 -129 35 -180 5 -27 14 -75 19 -105 5 -30
11 -64 13 -75 3 -11 8 -42 12 -70 5 -27 9 -57 11 -65 1 -8 9 -60 19 -115 9
-55 19 -118 21 -140 3 -22 8 -47 11 -55 4 -8 5 -19 4 -23 -1 -4 7 -67 18 -140
11 -73 23 -159 27 -192 9 -83 12 -105 18 -140 3 -16 8 -55 11 -85 3 -30 10
-89 16 -130 5 -41 11 -102 14 -135 3 -33 7 -71 10 -85 3 -14 8 -54 11 -90 3
-36 8 -81 10 -100 2 -19 7 -62 9 -95 7 -82 12 -112 19 -124 4 -5 2 -12 -4 -16
-6 -4 -8 -10 -5 -15 6 -10 9 -41 20 -175 3 -44 7 -96 10 -115 2 -19 7 -91 10
-160 4 -69 8 -138 10 -155 3 -16 7 -100 10 -185 3 -85 8 -182 10 -215 2 -33 7
-148 10 -255 3 -107 8 -253 11 -325 3 -71 7 -193 9 -270 2 -77 4 -140 4 -140
1 0 4 -58 6 -130 9 -221 14 -337 20 -400 3 -33 8 -96 10 -140 3 -44 7 -105 9
-135 3 -30 7 -82 11 -115 4 -33 8 -85 10 -115 2 -30 6 -75 10 -100 3 -25 8
-67 10 -95 3 -27 10 -84 15 -126 6 -41 12 -93 15 -115 2 -21 7 -50 9 -63 3
-14 8 -45 11 -70 3 -25 7 -53 8 -61 2 -8 9 -40 15 -70 6 -30 13 -71 15 -90 3
-19 7 -42 10 -50 4 -8 8 -28 11 -45 3 -16 7 -41 10 -55 3 -14 8 -34 10 -45 2
-11 9 -38 14 -60 6 -22 13 -51 16 -65 24 -111 29 -130 36 -130 4 0 7 -6 7 -12
1 -21 12 -69 33 -145 48 -173 58 -210 70 -238 6 -16 12 -32 12 -35 1 -8 5 -22
32 -100 50 -147 83 -235 100 -267 9 -18 14 -33 12 -33 -3 0 13 -36 35 -80 21
-44 39 -87 39 -95 0 -8 5 -15 11 -15 5 0 7 -4 4 -10 -3 -5 -1 -10 4 -10 6 0
10 -4 9 -8 -3 -8 42 -103 53 -112 3 -3 10 -16 14 -30 4 -14 16 -37 26 -51 10
-14 16 -29 12 -33 -3 -3 -1 -6 5 -6 6 0 16 -16 23 -35 7 -19 17 -35 21 -35 4
0 8 -7 8 -15 0 -8 5 -15 11 -15 5 0 8 -4 5 -9 -3 -5 1 -14 9 -21 8 -7 15 -19
15 -26 0 -8 5 -14 10 -14 6 0 10 -7 10 -15 0 -8 5 -15 11 -15 5 0 8 -4 4 -9
-3 -6 1 -13 9 -18 8 -4 16 -15 18 -23 2 -8 14 -26 28 -40 14 -14 27 -30 29
-35 7 -19 85 -130 93 -133 4 -2 8 -8 8 -13 0 -6 5 -15 10 -22 55 -65 130 -167
130 -175 0 -6 6 -13 13 -15 8 -4 9 -8 2 -14 -6 -4 -10 -17 -10 -28 0 -11 -3
-32 -7 -48 -4 -16 -3 -25 3 -22 13 9 11 -9 -3 -24 -9 -8 -9 -11 -2 -9 7 2 12
0 13 -4 3 -22 0 -28 -11 -22 -6 4 -8 3 -5 -4 4 -5 -18 -35 -48 -66 -30 -30
-55 -53 -55 -51 0 3 -38 -32 -84 -78 -46 -45 -135 -129 -197 -187 -62 -58
-134 -127 -161 -153 -26 -27 -48 -46 -48 -43 0 2 -22 -16 -49 -42 -27 -26 -86
-81 -131 -122 -45 -41 -107 -99 -138 -127 -30 -29 -57 -53 -60 -53 -2 0 -12
-8 -21 -18 -9 -10 -28 -27 -44 -36 -15 -10 -27 -25 -27 -32 0 -8 -3 -14 -8
-14 -4 0 -20 -11 -35 -25 -15 -14 -27 -24 -27 -21 0 3 -37 -31 -82 -74 -46
-44 -86 -80 -90 -80 -4 0 -25 -18 -46 -40 -22 -21 -42 -36 -46 -33 -3 4 -6 -1
-6 -10 0 -8 -9 -18 -20 -22 -11 -3 -28 -17 -38 -30 -11 -13 -22 -22 -25 -19
-3 3 -8 -4 -12 -15 -3 -12 -11 -19 -16 -16 -5 4 -9 1 -9 -6 0 -7 -3 -9 -7 -6
-3 4 -15 -5 -25 -20 -10 -16 -18 -25 -18 -21 0 4 -13 -5 -29 -20 -55 -51 -91
-82 -91 -77 0 2 -12 -7 -26 -20 -15 -14 -31 -25 -35 -25 -5 0 -9 -7 -9 -16 0
-8 -4 -13 -10 -9 -5 3 -18 -3 -30 -15 -11 -11 -20 -17 -20 -13 0 3 -9 -4 -20
-17 -11 -13 -20 -20 -20 -17 0 7 -29 -15 -66 -50 -13 -13 -26 -23 -29 -23 -3
0 -28 -16 -55 -35 -27 -19 -54 -35 -60 -35 -5 0 -10 -4 -10 -8 0 -5 -16 -17
-35 -28 -19 -10 -35 -22 -35 -27 0 -4 -4 -6 -9 -3 -5 3 -12 -1 -15 -10 -4 -9
-9 -14 -12 -11 -4 3 -11 1 -18 -4 -25 -23 -146 -97 -146 -91 0 4 -5 -1 -11
-10 -5 -10 -17 -18 -24 -18 -8 0 -24 -9 -35 -20 -12 -12 -25 -18 -30 -15 -6 4
-10 1 -10 -4 0 -6 -16 -17 -35 -25 -19 -8 -35 -20 -35 -26 0 -6 -4 -9 -8 -6
-5 3 -24 -5 -43 -17 -19 -11 -36 -22 -39 -22 -8 -3 -73 -34 -90 -44 -8 -5 -28
-15 -45 -22 -16 -7 -37 -19 -45 -25 -8 -7 -18 -13 -22 -14 -13 -1 -41 -11
-103 -35 -52 -20 -115 -42 -150 -52 -58 -16 -139 -36 -175 -44 -85 -19 -150
-40 -150 -48 0 -4 -9 -7 -20 -8 -11 -1 -29 -11 -42 -22 -12 -12 -26 -21 -32
-21 -5 0 -7 -3 -4 -6 3 -3 -5 -17 -18 -31 -13 -14 -22 -28 -19 -31 3 -3 0 -11
-5 -18 -16 -18 -21 -52 -21 -123 0 -81 43 -176 113 -252 10 -11 18 -23 18 -28
0 -5 7 -12 16 -15 8 -3 13 -10 9 -15 -3 -5 3 -16 12 -23 10 -7 38 -35 62 -63
68 -78 253 -265 263 -265 5 0 6 -5 3 -10 -3 -5 0 -10 7 -10 8 0 21 -8 30 -18
36 -36 57 -54 129 -107 41 -29 85 -62 99 -73 14 -11 35 -22 47 -26 13 -4 23
-12 23 -17 0 -6 4 -7 10 -4 5 3 10 2 10 -3 0 -5 30 -25 67 -43 38 -18 71 -38
75 -44 4 -5 8 -6 8 -1 0 5 8 2 18 -6 9 -8 37 -22 62 -31 25 -10 51 -21 59 -26
18 -11 6 -45 -11 -35 -10 6 -10 4 -2 -7 9 -13 11 -26 4 -46 -1 -5 -1 -18 -1
-29 2 -20 -14 -30 -56 -35 -5 -1 -19 -6 -33 -11 -32 -13 -73 -23 -190 -49
-157 -33 -178 -34 -535 -30 -117 1 -176 -5 -186 -20 -5 -8 -9 -10 -9 -5 0 5
-20 -11 -46 -37 -25 -25 -47 -46 -50 -47 -2 0 -3 -2 -1 -3 1 -2 -5 -12 -13
-22 -14 -17 -21 -81 -11 -100 3 -5 6 -17 8 -25 3 -22 85 -185 95 -188 4 -2 8
-8 8 -13 0 -5 8 -21 17 -36 10 -14 18 -31 19 -37 2 -14 86 -140 96 -144 4 -2
8 -10 8 -17 0 -7 3 -15 8 -17 9 -4 41 -57 49 -81 3 -9 9 -17 14 -17 5 0 9 -7
9 -15 0 -8 3 -15 8 -15 4 0 16 -17 27 -38 11 -20 23 -39 26 -42 3 -3 14 -21
24 -40 10 -18 23 -40 29 -47 29 -33 34 -41 29 -47 -4 -3 -1 -6 5 -6 7 0 12 -4
12 -10 0 -5 8 -19 17 -29 32 -35 43 -50 43 -58 0 -5 9 -15 20 -23 11 -8 20
-18 20 -23 0 -5 10 -21 23 -36 12 -16 36 -45 52 -67 17 -21 38 -46 47 -56 10
-10 18 -20 18 -23 0 -5 31 -41 87 -100 17 -18 29 -35 27 -38 -3 -2 11 -18 31
-36 20 -17 32 -31 28 -31 -4 0 0 -5 10 -11 9 -5 17 -17 17 -26 0 -9 3 -14 6
-10 3 3 27 -19 54 -48 27 -29 51 -51 54 -48 3 4 6 2 6 -4 0 -5 18 -28 40 -51
22 -22 40 -42 40 -44 0 -2 50 -54 110 -116 61 -62 110 -117 110 -123 0 -5 4
-9 9 -9 12 0 71 -59 71 -71 0 -5 7 -9 15 -9 8 0 15 -3 15 -7 0 -7 54 -64 140
-146 38 -37 90 -67 115 -67 8 0 15 -4 15 -9 0 -10 30 -23 41 -18 3 1 13 -5 22
-13 35 -32 47 -40 47 -33 0 4 5 0 11 -10 5 -9 17 -17 24 -17 8 0 15 -4 15 -10
0 -5 5 -10 10 -10 13 0 190 -178 190 -191 0 -5 8 -17 18 -27 10 -10 35 -53 57
-97 22 -44 56 -95 76 -115 47 -46 157 -146 209 -190 71 -59 98 -83 152 -132
28 -27 56 -48 60 -48 5 0 6 -4 3 -10 -6 -9 8 -14 27 -11 5 0 8 -3 8 -7 0 -13
36 -52 42 -46 3 3 15 -6 26 -20 11 -15 23 -26 27 -26 4 0 15 -8 24 -18 9 -10
25 -25 37 -33 11 -8 43 -33 70 -56 27 -23 70 -59 95 -80 26 -21 57 -47 70 -58
13 -11 37 -30 54 -42 42 -31 82 -64 111 -91 13 -13 24 -20 24 -17 0 3 11 -4
25 -17 64 -60 75 -68 75 -61 0 4 16 -8 35 -27 19 -19 35 -31 35 -27 0 4 15 -6
33 -22 17 -16 35 -30 39 -31 4 -1 21 -14 39 -31 17 -16 34 -28 36 -26 2 3 16
-7 31 -22 15 -14 41 -36 57 -48 17 -12 51 -37 78 -57 26 -20 52 -36 58 -36 5
0 8 -4 5 -9 -3 -5 10 -16 29 -25 19 -9 35 -21 35 -27 0 -6 4 -7 10 -4 5 3 10
3 10 -2 0 -4 24 -24 53 -43 28 -19 63 -45 76 -57 13 -13 29 -23 36 -23 6 0 21
-11 33 -25 12 -14 26 -25 32 -25 9 0 35 -19 65 -47 8 -7 18 -13 24 -13 6 0 11
-4 11 -10 0 -5 7 -10 15 -10 8 0 15 -3 15 -8 0 -4 16 -16 35 -26 19 -11 35
-23 35 -28 0 -4 7 -8 15 -8 8 0 15 -3 15 -8 0 -4 16 -16 35 -26 19 -11 35 -23
35 -28 0 -4 6 -8 13 -8 8 0 25 -9 38 -20 13 -11 29 -23 34 -28 6 -4 29 -19 53
-32 23 -13 42 -27 42 -32 0 -4 6 -8 13 -8 12 0 27 -10 75 -50 6 -6 12 -7 12
-3 1 4 10 -3 20 -16 11 -13 20 -20 20 -17 0 4 20 -7 44 -24 25 -16 49 -30 55
-30 6 0 11 -3 11 -8 0 -4 26 -23 58 -41 31 -19 59 -37 62 -40 3 -3 15 -12 28
-18 55 -32 67 -39 86 -55 11 -10 26 -18 33 -18 7 0 13 -5 13 -11 0 -5 4 -7 10
-4 5 3 10 2 10 -3 0 -6 14 -15 30 -21 17 -5 30 -15 30 -22 0 -7 3 -9 7 -6 3 4
13 1 22 -6 28 -24 229 -147 240 -147 6 0 11 -4 11 -9 0 -5 10 -11 23 -15 12
-3 32 -14 44 -25 11 -11 24 -17 27 -14 3 4 6 1 6 -5 0 -7 5 -12 10 -12 6 0 41
-18 77 -41 37 -22 72 -41 77 -42 6 -1 18 -9 28 -18 10 -9 31 -22 46 -30 26
-13 70 -37 190 -106 31 -18 73 -41 92 -50 19 -10 37 -20 40 -23 3 -3 34 -21
70 -39 91 -48 104 -55 110 -61 13 -13 130 -70 130 -63 0 4 4 3 8 -3 4 -6 50
-33 102 -60 52 -27 97 -52 98 -56 2 -5 10 -8 17 -8 13 0 97 -42 121 -61 6 -5
14 -6 17 -2 4 3 7 1 7 -5 0 -7 3 -11 8 -10 4 1 40 -14 80 -34 39 -21 72 -34
72 -30 0 4 5 0 10 -8 5 -8 13 -15 17 -15 4 -1 48 -20 98 -44 49 -23 94 -43
100 -44 5 -1 12 -5 15 -8 7 -8 132 -68 145 -70 6 0 17 -7 26 -15 9 -8 19 -11
22 -7 4 3 7 1 7 -5 0 -7 3 -11 8 -10 4 1 25 -6 47 -16 22 -10 60 -28 85 -39
25 -11 56 -26 70 -33 14 -7 48 -21 75 -32 62 -24 164 -69 187 -82 10 -6 24
-10 31 -10 7 0 19 -6 25 -12 7 -7 17 -14 22 -14 6 -1 12 -3 15 -4 3 -1 8 -3
13 -4 4 -2 21 -8 37 -16 67 -29 91 -39 105 -42 8 -2 17 -5 20 -8 3 -3 70 -31
150 -62 80 -32 159 -63 175 -69 17 -7 35 -13 40 -15 6 -1 24 -8 40 -15 17 -7
33 -13 38 -14 4 -2 8 -3 10 -5 1 -1 9 -3 17 -5 40 -10 116 -41 122 -50 4 -5 8
-6 8 -1 0 5 6 3 13 -3 8 -6 17 -8 20 -4 4 3 12 1 19 -4 7 -6 47 -21 88 -34 41
-13 78 -28 82 -34 4 -5 8 -7 8 -3 0 3 51 -11 113 -32 93 -31 158 -50 187 -55
3 0 12 -5 20 -10 14 -9 27 -13 60 -19 8 -2 47 -13 85 -25 39 -13 79 -24 90
-26 11 -2 36 -8 55 -15 55 -18 435 -121 510 -138 42 -10 233 -59 255 -66 6 -1
33 -6 60 -11 28 -4 56 -12 63 -17 6 -6 12 -8 12 -5 0 3 32 -3 70 -13 39 -10
73 -18 75 -18 3 0 18 -3 33 -6 15 -4 36 -8 47 -10 18 -4 82 -19 140 -32 11 -3
34 -7 50 -10 17 -3 47 -10 68 -15 21 -6 53 -12 71 -14 17 -2 63 -12 102 -21
103 -24 209 -45 294 -59 19 -3 42 -8 50 -10 8 -2 29 -7 45 -9 17 -3 80 -15
140 -25 112 -20 144 -26 205 -36 19 -3 58 -10 85 -15 28 -5 70 -12 95 -15 24
-4 47 -8 50 -10 3 -2 42 -8 86 -14 44 -7 90 -13 101 -15 11 -3 65 -9 119 -16
55 -6 109 -13 120 -15 94 -15 274 -20 749 -20 497 0 659 4 765 19 19 3 80 10
135 17 55 6 107 12 116 14 10 2 39 6 66 10 79 11 106 16 112 19 3 2 29 7 56
11 48 6 67 9 118 19 12 2 40 6 62 10 23 3 52 8 65 11 14 3 66 12 115 20 136
24 159 28 170 31 15 4 104 20 170 31 17 3 59 11 95 19 36 8 76 17 90 20 14 2
32 7 40 9 8 2 31 7 50 10 19 3 64 13 100 21 36 9 80 18 99 20 19 3 37 7 41 9
5 3 41 12 82 20 40 8 120 26 178 40 58 14 119 27 135 30 17 3 46 10 65 15 19
5 46 11 60 14 14 3 88 22 165 42 77 19 156 39 175 44 19 5 44 11 55 14 11 3
72 19 135 36 63 17 122 34 130 37 8 3 20 7 25 8 83 21 182 48 229 65 33 11 67
20 78 20 10 0 26 4 36 9 16 9 137 49 165 55 7 2 23 8 37 13 14 6 28 9 33 6 4
-2 7 1 7 6 0 6 3 10 8 9 7 -3 187 55 227 72 11 5 42 16 69 25 27 9 54 19 60
23 6 4 13 7 16 7 20 3 116 40 121 47 3 5 9 9 13 9 17 -2 67 13 72 20 3 5 10 7
15 4 5 -4 9 -1 9 6 0 7 3 10 6 6 3 -3 30 5 60 18 30 13 55 24 57 24 1 0 15 4
30 10 16 6 33 11 38 11 5 0 9 4 9 8 0 5 6 9 13 9 13 1 210 79 286 114 24 11
64 29 90 39 25 10 78 32 116 50 39 18 75 33 81 34 6 1 23 9 37 19 15 9 31 17
36 17 14 0 85 33 92 43 3 4 16 9 28 12 13 2 29 9 37 16 8 6 14 8 14 4 0 -5 8
-2 17 6 23 19 90 49 108 49 8 0 15 3 15 8 0 4 21 16 48 26 26 10 54 25 62 32
8 7 18 13 22 13 5 1 43 18 85 38 43 20 82 37 86 37 4 1 11 7 16 14 5 8 10 13
12 11 8 -4 54 14 61 24 3 6 17 12 29 14 13 2 26 7 29 11 7 10 123 66 133 64 4
-1 7 2 7 8 0 5 6 10 13 10 7 0 19 6 26 13 6 6 16 12 20 12 13 0 146 69 149 78
2 4 12 7 23 7 10 0 19 3 19 8 0 4 17 15 39 24 21 9 60 31 87 47 26 17 57 31
68 31 10 0 16 3 13 7 -4 3 15 17 43 30 27 13 52 28 55 33 4 6 11 8 16 5 5 -4
9 -1 9 5 0 6 5 8 10 5 6 -3 13 1 16 9 3 9 10 14 14 11 5 -3 15 2 23 10 9 8 19
15 23 15 4 0 28 13 54 29 27 16 51 27 54 24 3 -4 6 -2 6 3 0 6 22 21 50 35 27
13 50 28 50 32 0 5 5 5 10 2 6 -3 10 -3 10 2 0 4 29 24 65 42 36 19 65 39 65
43 0 4 6 8 14 8 7 0 30 11 50 25 20 13 36 22 36 19 0 -2 10 4 22 16 12 11 28
20 35 20 7 0 13 5 13 10 0 6 5 10 11 10 14 0 163 90 167 101 2 5 8 7 13 3 5
-3 9 0 9 5 0 6 7 11 15 11 8 0 24 9 35 20 11 11 20 17 20 14 0 -3 12 4 26 15
15 12 30 21 35 21 4 0 39 21 76 47 37 27 69 47 71 45 1 -1 17 9 36 23 18 14
38 25 44 25 7 0 12 4 12 9 0 5 10 13 22 17 12 3 31 15 42 25 11 11 32 25 48
31 15 7 28 16 28 19 0 4 14 12 30 19 17 7 30 16 30 21 0 5 7 9 15 9 8 0 15 5
15 10 0 6 7 10 15 10 8 0 15 5 15 11 0 5 5 7 10 4 6 -3 10 -1 10 4 0 6 6 11
14 11 8 0 16 4 18 8 2 5 44 35 93 67 50 33 113 76 141 97 28 21 55 38 61 38 5
0 18 9 28 20 10 11 22 20 27 20 5 0 21 11 35 24 15 14 30 23 35 20 4 -3 8 -1
8 5 0 6 25 27 57 47 31 20 62 42 69 49 8 7 29 23 49 35 19 12 35 27 35 32 0 6
3 9 6 5 5 -4 108 67 161 113 7 5 15 10 17 10 6 0 39 26 68 53 10 9 23 17 28
17 6 0 10 5 10 12 0 6 3 9 6 6 3 -4 14 1 24 10 10 10 25 22 32 27 7 6 33 26
58 45 25 19 47 38 48 43 2 4 8 7 14 7 8 0 91 61 108 80 3 3 21 17 40 30 19 14
48 36 63 49 15 14 47 38 70 53 23 15 38 28 32 28 -5 0 12 14 38 30 26 17 50
37 53 45 4 8 12 15 19 15 7 0 30 16 49 35 20 19 38 35 41 35 2 0 15 10 28 23
13 12 34 30 48 39 42 30 93 72 120 101 15 15 32 27 39 27 6 0 8 5 5 10 -3 6
-2 10 4 10 5 0 21 10 35 23 13 12 39 33 57 47 18 14 50 42 71 62 22 21 43 38
46 38 4 0 36 27 71 60 35 33 69 60 74 60 6 0 8 3 5 6 -7 7 75 84 90 84 6 0 14
9 17 20 3 11 9 20 13 20 10 0 53 38 164 143 224 214 327 310 340 318 7 5 9 9
3 9 -5 0 1 7 15 15 14 8 21 14 16 15 -5 0 8 14 29 30 21 17 35 30 31 30 -4 0
13 17 38 37 24 21 45 43 45 49 1 6 12 17 26 24 14 7 23 15 21 18 -5 5 31 42
41 42 5 0 19 16 33 34 14 19 28 32 32 30 4 -2 9 5 13 16 4 11 11 18 16 15 5
-4 9 -2 9 2 0 13 138 151 145 145 3 -3 5 2 5 11 0 10 4 17 8 17 5 0 15 11 22
25 7 13 16 23 19 22 3 -2 36 28 72 65 36 37 64 68 61 68 -2 0 24 27 59 60 34
33 59 60 55 60 -4 0 -1 7 8 15 8 8 20 15 27 15 7 0 10 3 6 6 -3 3 6 17 20 30
14 13 24 24 21 24 -3 0 14 20 38 45 24 24 44 47 44 51 0 4 17 25 38 48 20 23
51 58 67 79 17 21 38 47 48 59 9 12 17 25 17 30 0 5 5 6 10 3 6 -3 10 0 10 8
0 8 9 22 20 32 11 10 20 23 20 29 0 6 9 17 20 24 11 7 20 19 20 27 0 8 3 15 8
15 4 0 18 18 32 40 13 22 28 40 32 40 4 0 8 7 8 15 0 8 5 15 10 15 6 0 10 7
10 15 0 8 9 23 19 32 11 9 18 20 15 25 -3 4 2 11 10 14 9 3 14 10 11 14 -3 4
2 13 10 20 8 7 15 19 15 26 0 8 4 14 9 14 5 0 11 8 15 18 3 9 24 44 46 77 22
33 43 67 47 75 4 8 15 24 25 34 10 11 24 32 30 48 7 15 16 28 20 28 5 0 8 5 8
11 0 6 9 24 21 40 11 16 18 29 15 29 -3 0 11 24 30 52 19 29 34 58 34 64 0 6
7 17 15 24 8 7 15 19 15 26 0 8 14 43 31 79 l32 64 -19 45 c-10 24 -21 43 -24
41 -3 -2 -15 10 -25 26 -11 16 -26 29 -32 29 -7 0 -13 4 -13 10 0 14 -52 39
-97 47 -21 3 -82 6 -135 5 -105 -1 -114 3 -109 50 1 16 -2 28 -9 28 -6 0 -8 5
-5 10 3 6 1 10 -5 10 -6 0 -8 5 -5 10 3 6 2 10 -4 10 -9 0 -10 17 0 35 5 9 5
31 -1 38 -2 3 -11 40 -12 55 -1 6 -8 12 -16 12 -9 0 -13 3 -9 6 3 4 -4 15 -16
26 -12 11 -15 16 -7 12 13 -7 13 -5 1 9 -11 14 -11 17 0 17 12 0 12 2 0 9 -9
6 -10 10 -2 16 9 5 9 10 0 21 -9 11 -8 14 2 14 12 0 12 2 1 9 -8 4 -14 12 -14
16 0 4 6 12 14 16 11 7 11 9 -1 9 -10 0 -11 3 -2 13 8 10 7 17 -1 25 -8 8 -8
15 1 26 9 10 9 16 1 21 -8 5 -7 11 2 23 10 12 10 14 1 8 -24 -14 -14 40 12 68
14 15 25 32 25 38 0 6 3 8 7 5 3 -4 13 2 20 13 8 11 19 17 25 14 6 -4 8 -2 5
4 -4 5 6 21 22 35 17 14 27 28 24 31 -4 3 1 6 10 6 9 0 17 5 17 10 0 6 24 35
54 65 30 30 51 55 48 55 -4 1 4 10 17 20 13 11 20 20 17 20 -4 0 6 12 21 28
39 38 93 108 93 120 0 6 3 12 8 14 15 6 59 74 75 116 23 56 24 165 3 221 -14
38 -46 75 -110 129 -8 6 -21 12 -29 12 -7 0 -18 5 -25 12 -7 7 -12 9 -12 5 0
-4 -9 -3 -20 3 -11 6 -58 20 -103 30 -45 10 -100 24 -122 30 -22 6 -50 13 -62
15 -12 2 -28 7 -35 11 -7 5 -16 9 -20 10 -5 1 -9 2 -10 4 -2 1 -11 3 -20 5 -9
2 -32 10 -49 19 -18 9 -40 16 -51 16 -10 0 -18 5 -18 11 0 6 -6 9 -14 6 -8 -3
-16 -2 -18 3 -2 5 -10 10 -18 12 -8 2 -17 5 -20 8 -3 3 -34 18 -70 35 -36 16
-72 35 -81 42 -8 7 -23 13 -31 13 -9 0 -18 3 -20 8 -1 4 -46 32 -98 61 -52 30
-103 61 -112 69 -10 8 -18 12 -18 8 0 -4 -7 -1 -15 6 -29 26 -41 34 -85 58
-25 14 -54 33 -64 43 -11 9 -24 17 -29 17 -5 0 -18 9 -28 21 -9 11 -19 19 -21
18 -4 -3 -58 31 -76 48 -7 7 -18 13 -23 13 -5 0 -19 9 -31 20 -12 10 -25 17
-30 14 -4 -3 -8 -1 -8 4 0 4 -31 31 -68 59 -74 55 -175 135 -235 186 -21 18
-43 31 -48 30 -5 -2 -9 4 -9 13 0 8 -5 12 -10 9 -5 -3 -10 1 -10 9 0 9 -6 16
-14 16 -8 0 -16 3 -18 8 -1 4 -32 32 -67 62 -35 30 -88 79 -119 107 -30 29
-58 51 -61 48 -4 -2 -16 10 -26 26 -11 16 -23 29 -27 29 -4 0 -21 14 -36 30
-16 17 -34 30 -41 30 -6 0 -11 8 -11 17 0 9 -3 13 -7 10 -3 -4 -24 11 -45 33
-22 22 -41 40 -42 40 -2 0 -36 31 -76 70 -40 39 -75 70 -77 70 -3 0 -25 21
-49 47 -24 25 -44 44 -44 41 0 -3 -30 24 -67 59 -38 36 -86 79 -107 94 -21 16
-36 29 -32 29 4 0 1 7 -8 15 -8 8 -17 15 -19 15 -3 0 -39 33 -81 74 -42 40
-76 72 -76 70 0 -2 -24 20 -53 49 -28 28 -72 69 -97 90 -73 63 -180 168 -180
178 0 5 -4 9 -8 9 -8 0 -135 121 -159 151 -10 13 -9 24 7 57 11 22 30 48 42
56 12 9 18 16 13 16 -5 0 0 7 11 15 10 8 15 15 10 15 -6 0 -1 7 10 15 10 8 16
15 12 15 -3 0 6 13 20 28 36 37 53 59 81 105 12 21 28 43 34 50 21 22 57 76
57 84 0 4 14 22 30 40 17 18 30 37 30 42 0 6 4 11 9 11 5 0 11 8 15 18 3 9 26
49 50 87 25 39 45 75 46 82 0 6 3 13 8 15 4 2 18 23 31 48 99 188 131 254 131
266 0 8 5 14 10 14 6 0 10 8 10 18 0 10 3 22 7 26 5 4 9 11 9 14 6 27 18 52
25 52 5 0 8 3 7 8 -1 8 6 28 32 87 9 22 23 58 30 80 7 22 17 46 23 52 5 7 7
13 4 13 -3 0 5 27 18 59 13 33 20 62 17 65 -3 3 -1 6 5 6 5 0 10 6 10 13 0 6
14 55 31 107 33 101 92 305 96 330 1 8 8 35 16 60 8 25 15 50 15 55 1 6 7 28
13 49 6 22 9 42 7 44 -2 3 0 12 5 22 5 9 11 28 14 41 2 13 10 47 16 74 6 28
14 59 16 70 3 11 14 70 24 130 11 61 21 119 23 130 3 11 8 42 11 68 4 27 9 59
12 70 2 12 7 42 10 67 3 25 7 56 9 70 11 75 16 110 20 160 2 30 7 80 10 110
10 105 15 155 20 220 3 36 8 88 10 115 3 28 7 84 10 125 3 41 7 104 10 140 2
36 7 133 11 215 3 83 7 179 10 215 2 36 6 155 9 265 2 110 7 245 11 300 3 55
7 163 9 240 4 139 13 355 20 470 2 33 6 121 10 195 3 74 8 149 10 165 2 17 6
80 10 140 3 61 7 124 10 140 2 17 6 64 10 105 3 41 7 93 9 115 3 22 7 72 11
110 3 39 7 88 10 110 2 22 7 65 10 95 2 30 7 66 9 80 4 23 9 64 22 185 11 113
14 131 18 160 6 34 14 98 22 165 3 25 7 56 9 70 3 14 7 52 11 85 5 55 8 76 19
130 2 11 6 43 10 70 3 28 8 57 10 65 2 8 6 35 9 60 3 25 7 54 10 65 2 11 7 42
10 69 6 42 18 111 51 291 3 17 8 46 11 65 11 62 14 80 19 103 12 58 24 115 29
147 7 43 8 47 41 194 15 65 40 171 57 235 16 64 38 152 49 196 11 44 29 104
40 134 11 29 17 56 15 59 -3 2 0 14 6 26 7 11 13 26 14 31 5 27 66 212 74 227
6 10 10 25 10 33 0 8 5 23 10 33 9 15 68 172 74 197 1 6 12 32 24 59 12 27 22
57 22 67 0 11 5 19 11 19 6 0 9 6 6 13 -2 6 6 33 19 58 13 26 20 49 17 53 -4
3 -1 6 5 6 7 0 12 6 12 14 0 8 5 27 12 43 6 15 12 30 13 33 2 6 24 60 32 80 3
8 5 18 5 23 -1 4 3 7 8 7 6 0 10 6 10 13 0 7 9 31 19 53 11 22 23 52 26 67 4
15 11 27 16 27 5 0 9 3 8 8 -2 16 14 52 24 52 6 0 7 3 4 6 -4 4 0 19 7 33 30
56 96 203 96 212 0 5 5 9 12 9 6 0 9 2 6 5 -3 3 16 47 42 98 120 236 155 302
160 307 3 3 25 45 50 95 25 49 56 110 70 135 13 25 25 51 27 58 1 8 9 22 17
31 9 10 13 21 9 24 -3 4 -2 7 4 7 6 0 9 31 8 78 -1 79 -10 128 -28 150 -5 6
-6 12 -3 12 10 0 -93 100 -105 101 -5 1 -13 2 -18 3 -5 0 -13 4 -17 9 -15 15
-160 7 -234 -14 -78 -21 -205 -69 -306 -115 -33 -14 -75 -33 -94 -41 -19 -8
-56 -26 -81 -38 -26 -13 -49 -21 -53 -18 -3 4 -6 2 -6 -4 0 -5 -27 -21 -60
-34 -33 -13 -60 -27 -60 -31 0 -5 -9 -8 -20 -8 -11 0 -20 -5 -20 -11 0 -5 -4
-8 -9 -5 -4 3 -17 -1 -27 -9 -10 -8 -27 -15 -36 -15 -10 0 -18 -5 -18 -12 0
-6 -3 -9 -6 -5 -3 3 -29 -7 -57 -21 -29 -14 -55 -25 -59 -24 -5 1 -8 -2 -8 -7
0 -5 -10 -12 -22 -16 -30 -10 -20 -5 -127 -58 -51 -25 -99 -52 -107 -58 -8 -6
-14 -8 -14 -5 0 4 -7 0 -16 -8 -8 -9 -20 -14 -25 -11 -5 4 -9 2 -9 -3 0 -8
-50 -36 -59 -32 -2 1 -7 -4 -12 -12 -5 -7 -12 -13 -16 -14 -14 -1 -68 -28 -81
-41 -8 -7 -18 -11 -23 -8 -5 4 -9 1 -9 -4 0 -6 -7 -11 -15 -11 -8 0 -15 -4
-15 -10 0 -5 -6 -10 -14 -10 -7 0 -25 -9 -38 -20 -14 -10 -28 -16 -32 -13 -3
3 -6 1 -6 -5 0 -7 -7 -12 -15 -12 -7 0 -18 -8 -24 -17 -5 -10 -11 -17 -13 -15
-4 5 -62 -18 -68 -27 -3 -4 -36 -25 -75 -46 -38 -21 -73 -43 -77 -49 -4 -6 -8
-7 -8 -2 0 5 -8 2 -17 -6 -10 -8 -43 -28 -73 -45 -115 -62 -275 -157 -278
-165 -2 -4 -9 -8 -17 -8 -7 0 -18 -7 -25 -15 -7 -8 -16 -12 -21 -9 -5 3 -12
-2 -15 -10 -3 -9 -10 -13 -15 -10 -5 3 -9 1 -9 -4 0 -5 -8 -12 -17 -16 -10 -3
-27 -11 -38 -18 -11 -7 -45 -30 -77 -50 -31 -21 -62 -38 -67 -38 -6 0 -11 -4
-11 -10 0 -5 -16 -17 -35 -26 -19 -9 -35 -21 -35 -27 0 -6 -3 -8 -6 -4 -4 3
-29 -11 -58 -32 -28 -21 -72 -51 -98 -67 -27 -16 -48 -32 -48 -36 0 -5 -7 -8
-15 -8 -8 0 -15 -4 -15 -10 0 -5 -5 -10 -10 -10 -6 0 -20 -9 -32 -20 -11 -10
-36 -26 -54 -35 -19 -9 -34 -20 -34 -25 0 -6 -7 -10 -15 -10 -9 0 -18 -7 -21
-15 -4 -8 -12 -15 -20 -15 -8 0 -14 -5 -14 -11 0 -5 -4 -8 -9 -5 -4 3 -16 -3
-26 -14 -10 -11 -23 -20 -28 -20 -5 0 -20 -11 -33 -25 -13 -14 -28 -25 -34
-25 -6 0 -17 -6 -25 -12 -22 -22 -63 -50 -70 -48 -4 1 -15 -8 -24 -19 -10 -12
-22 -21 -27 -21 -5 0 -24 -13 -42 -30 -18 -16 -35 -29 -38 -29 -3 1 -17 -8
-30 -20 -13 -11 -24 -18 -24 -15 0 3 -7 -1 -15 -8 -33 -30 -45 -38 -45 -32 0
3 -9 -4 -20 -17 -10 -13 -19 -21 -20 -16 0 4 -8 -1 -18 -10 -10 -10 -29 -25
-42 -33 -13 -8 -32 -23 -42 -32 -10 -10 -18 -15 -18 -11 0 4 -8 -2 -19 -13
-10 -10 -28 -26 -41 -34 -12 -8 -30 -22 -40 -30 -10 -8 -28 -22 -40 -30 -12
-8 -39 -30 -59 -47 -20 -18 -44 -35 -54 -39 -9 -3 -15 -10 -12 -15 4 -5 -1 -9
-9 -9 -9 0 -16 -3 -16 -8 0 -4 -16 -16 -35 -26 -19 -11 -33 -21 -30 -24 4 -5
-10 -17 -80 -67 -15 -11 -35 -28 -44 -37 -8 -10 -21 -18 -28 -18 -6 0 -18 -8
-25 -18 -7 -10 -33 -33 -58 -52 -25 -19 -52 -42 -60 -50 -8 -8 -33 -28 -55
-45 -22 -16 -50 -39 -62 -52 -13 -13 -23 -21 -23 -18 0 4 -18 -11 -40 -32 -22
-21 -58 -55 -79 -75 -22 -21 -44 -38 -50 -38 -6 0 -11 -7 -11 -15 0 -8 -3 -14
-8 -12 -4 1 -16 -7 -28 -18 -79 -76 -124 -115 -133 -115 -6 0 -11 -4 -11 -9 0
-13 -59 -71 -72 -71 -6 0 -8 -3 -5 -7 4 -3 -5 -15 -20 -25 -16 -10 -25 -18
-20 -18 4 0 -17 -21 -46 -47 -29 -27 -67 -65 -85 -87 -17 -21 -32 -36 -32 -33
0 6 -212 -206 -265 -264 -19 -22 -35 -36 -35 -32 -1 5 -7 -3 -15 -17 -8 -14
-14 -21 -15 -17 0 4 -15 -9 -32 -30 -50 -57 -67 -73 -78 -73 -5 0 -9 -4 -7 -8
1 -5 -18 -29 -43 -54 -25 -25 -70 -73 -100 -107 -30 -34 -70 -77 -88 -95 -17
-19 -32 -36 -32 -39 0 -3 -18 -24 -40 -46 -23 -23 -39 -41 -36 -41 3 0 -6 -12
-19 -26 -14 -15 -25 -31 -25 -36 0 -5 -4 -6 -10 -3 -5 3 -10 3 -10 -2 0 -4
-10 -20 -23 -34 -12 -15 -34 -42 -49 -60 -29 -37 -73 -90 -101 -122 -9 -11
-17 -24 -17 -29 0 -5 -5 -6 -10 -3 -6 3 -14 -5 -19 -18 -5 -13 -17 -27 -25
-30 -9 -4 -16 -12 -16 -19 0 -8 -8 -21 -17 -30 -27 -25 -43 -46 -43 -57 0 -5
-7 -11 -15 -15 -8 -3 -15 -13 -15 -21 0 -9 -4 -14 -9 -10 -5 3 -12 -4 -16 -15
-3 -11 -11 -20 -17 -20 -6 0 -9 -3 -6 -6 3 -3 -4 -15 -16 -28 -11 -12 -28 -32
-36 -45 -16 -24 -83 -116 -103 -141 -7 -8 -34 -49 -62 -90 -27 -41 -53 -77
-56 -80 -10 -9 -56 -85 -57 -94 0 -5 -7 -13 -16 -18 -9 -5 -16 -13 -16 -19 0
-5 -5 -15 -10 -22 -6 -7 -39 -57 -73 -112 -34 -55 -65 -102 -69 -103 -5 -2 -6
-8 -2 -13 3 -5 0 -9 -6 -9 -6 0 -9 -4 -6 -9 4 -5 3 -11 -1 -13 -12 -5 -49 -61
-57 -86 -4 -12 -12 -22 -17 -22 -5 0 -9 -9 -9 -19 0 -10 -7 -22 -16 -25 -8 -3
-12 -10 -9 -16 3 -5 1 -10 -4 -10 -6 0 -11 -6 -11 -14 0 -8 -6 -21 -13 -28 -7
-7 -18 -24 -24 -38 -7 -14 -28 -52 -47 -85 -47 -83 -112 -210 -106 -210 2 0
-5 -10 -15 -23 -11 -12 -21 -26 -21 -30 -5 -26 -18 -52 -25 -52 -5 0 -9 -9 -9
-20 0 -11 -4 -20 -10 -20 -5 0 -9 -3 -8 -7 2 -5 -21 -57 -51 -116 -29 -60 -54
-115 -55 -122 -1 -7 -7 -19 -13 -26 -6 -8 -12 -17 -13 -21 -9 -38 -14 -48 -23
-48 -6 0 -8 -3 -4 -6 3 -3 -5 -27 -18 -52 -12 -26 -32 -68 -44 -94 -12 -27
-30 -67 -40 -90 -11 -24 -20 -46 -20 -50 -1 -5 -10 -24 -22 -44 -11 -20 -18
-39 -15 -41 3 -3 -2 -12 -10 -20 -8 -8 -12 -19 -9 -24 4 -5 1 -9 -4 -9 -6 0
-11 -4 -11 -10 0 -5 -11 -33 -23 -62 -34 -75 -62 -152 -59 -160 1 -5 -2 -8 -7
-8 -5 0 -12 -12 -17 -27 -4 -16 -8 -30 -9 -33 -1 -3 -10 -25 -21 -50 -10 -25
-18 -48 -16 -52 1 -5 -2 -8 -6 -8 -4 0 -8 -8 -9 -18 -2 -27 -7 -47 -15 -52 -5
-4 -114 -313 -123 -350 -2 -8 -8 -27 -13 -41 -6 -15 -8 -30 -5 -33 4 -3 0 -6
-7 -6 -7 0 -11 -2 -8 -6 3 -3 -5 -37 -18 -75 -13 -39 -24 -77 -24 -85 0 -8 -5
-14 -11 -14 -5 0 -8 -4 -5 -8 3 -5 -9 -19 -26 -32 -17 -12 -27 -16 -23 -9 6
11 5 12 -6 2 -7 -7 -17 -13 -22 -13 -4 0 -5 6 -1 13 5 8 2 8 -9 -2 -9 -7 -17
-10 -17 -5 0 4 -5 3 -11 -3 -6 -6 -18 -9 -25 -6 -8 3 -14 0 -14 -6 0 -6 -7 -8
-17 -4 -11 4 -14 3 -9 -6 9 -14 -15 -11 -26 3 -4 6 -13 4 -22 -3 -13 -11 -16
-11 -16 0 0 12 -2 12 -9 0 -5 -7 -14 -10 -20 -7 -6 4 -10 2 -9 -5 2 -6 -3 -14
-11 -17 -9 -3 -11 0 -6 8 5 9 3 10 -11 3 -24 -12 -103 -7 -129 8 -10 7 -107
39 -128 43 -7 2 -19 5 -27 8 -29 10 -135 42 -149 44 -7 1 -47 14 -90 27 -42
14 -89 28 -106 33 -37 9 -34 8 -68 22 -16 7 -36 12 -46 12 -10 0 -21 3 -25 8
-4 4 -11 7 -14 8 -35 4 -92 19 -114 31 -16 7 -28 12 -28 9 0 -2 -21 2 -47 10
-77 24 -196 55 -228 61 -16 3 -36 10 -42 15 -7 6 -13 8 -13 5 0 -3 -15 -1 -32
4 -18 6 -40 12 -48 14 -87 21 -288 74 -300 79 -8 3 -26 8 -40 10 -14 3 -113
23 -220 46 -107 22 -213 43 -235 46 -22 2 -60 9 -85 14 -25 5 -58 11 -75 14
-79 11 -235 37 -275 46 -25 5 -72 12 -105 15 -32 4 -62 8 -65 10 -3 1 -37 6
-76 9 -39 4 -80 8 -90 10 -51 10 -466 38 -534 36 -8 0 -60 1 -115 1 -55 1
-109 1 -120 1 -11 0 -103 0 -205 -1 -102 -1 -189 -1 -195 0 -5 0 -24 0 -41 -1
-16 0 -100 -3 -185 -5 -205 -5 -419 -18 -489 -30 -14 -2 -54 -7 -90 -11 -36
-3 -74 -8 -85 -10 -11 -3 -51 -9 -90 -14 -38 -5 -79 -11 -91 -14 -12 -2 -45
-7 -75 -11 -30 -4 -57 -9 -60 -10 -3 -2 -28 -7 -55 -10 -69 -9 -106 -15 -113
-19 -3 -2 -26 -7 -51 -10 -25 -3 -56 -8 -70 -11 -14 -3 -59 -11 -100 -19 -41
-9 -91 -17 -110 -20 -19 -3 -93 -19 -165 -36 -71 -17 -137 -33 -145 -35 -62
-14 -228 -57 -240 -62 -16 -7 -17 -7 -75 -21 -115 -28 -280 -74 -295 -82 -10
-5 -20 -7 -23 -4 -3 3 -12 2 -19 -2 -7 -5 -24 -10 -38 -12 -13 -2 -30 -8 -37
-14 -7 -6 -13 -8 -13 -4 0 3 -16 0 -35 -8 -20 -9 -39 -15 -43 -16 -4 0 -25 -6
-47 -12 -22 -6 -44 -13 -50 -14 -14 -4 -96 -28 -200 -59 -49 -15 -97 -29 -105
-32 -20 -8 -25 -9 -102 -31 -49 -14 -70 -16 -79 -8 -9 8 -10 8 -6 0 6 -11 -12
-24 -29 -23 -4 0 -10 -3 -13 -8 -9 -14 -101 -32 -107 -21 -3 5 -11 4 -19 -2
-9 -8 -15 -8 -20 0 -4 7 -12 7 -25 0 -13 -7 -19 -6 -24 6 -3 8 -10 13 -15 9
-5 -3 -13 -1 -16 5 -5 8 -11 8 -20 0 -10 -8 -15 -8 -20 0 -5 8 -10 8 -20 0
-10 -8 -15 -8 -20 0 -5 8 -10 8 -20 0 -9 -8 -15 -8 -20 0 -3 5 -17 10 -31 10
-13 0 -24 5 -24 11 0 5 -5 7 -10 4 -6 -4 -18 -1 -26 6 -18 15 -58 89 -48 89 4
0 1 7 -6 15 -7 8 -9 15 -5 15 4 0 3 6 -3 13 -6 6 -11 15 -11 20 -1 16 -14 63
-20 72 -3 6 -6 16 -7 23 -3 17 -63 203 -74 227 -5 11 -16 42 -25 69 -22 68
-84 235 -101 273 -8 17 -14 34 -14 38 0 3 -12 32 -26 63 -15 31 -27 62 -29 67
-2 12 -11 34 -41 102 -12 28 -20 54 -16 57 3 3 0 6 -6 6 -7 0 -12 5 -12 11 0
6 -14 40 -30 75 -17 35 -31 66 -30 69 0 3 -11 28 -26 56 -14 29 -27 61 -30 72
-2 11 -11 28 -20 38 -10 11 -14 19 -11 19 4 0 -9 31 -28 69 -35 70 -58 120
-59 133 -1 4 -7 13 -13 19 -7 7 -13 21 -13 31 0 10 -5 18 -12 18 -6 0 -9 3 -6
6 4 3 -12 42 -35 87 -22 45 -41 84 -42 87 -6 21 -30 60 -38 60 -6 0 -7 3 -4 6
7 7 -101 217 -114 222 -4 2 -5 10 -2 18 3 8 1 14 -5 14 -5 0 -15 14 -22 30 -7
17 -17 30 -22 30 -5 0 -7 4 -3 9 3 5 -2 16 -10 24 -8 9 -15 23 -15 31 0 9 -4
16 -8 16 -5 0 -17 18 -28 40 -10 22 -23 40 -27 40 -5 0 -6 4 -3 9 3 5 -1 14
-9 21 -8 7 -15 19 -15 26 0 8 -4 14 -10 14 -5 0 -12 11 -16 25 -3 14 -10 25
-14 25 -4 0 -13 14 -20 30 -7 17 -17 30 -22 30 -5 0 -7 4 -4 8 3 5 -4 18 -14
30 -11 12 -20 24 -20 27 0 3 -18 33 -40 66 -22 33 -40 65 -40 70 0 5 -4 9 -10
9 -5 0 -10 7 -10 15 0 8 -4 15 -10 15 -5 0 -10 7 -10 15 0 8 -4 15 -10 15 -5
0 -10 7 -10 15 0 8 -11 25 -24 38 -14 14 -22 28 -19 31 4 3 1 6 -5 6 -7 0 -12
6 -12 13 0 8 -9 22 -20 32 -11 10 -20 24 -20 32 0 7 -4 13 -10 13 -5 0 -10 7
-10 15 0 8 -4 15 -8 15 -4 0 -15 13 -25 29 -9 16 -36 54 -60 83 -23 29 -42 57
-42 61 0 4 -5 11 -11 15 -5 4 -25 28 -44 55 -18 26 -37 47 -42 47 -4 0 -8 7
-8 15 0 8 -9 20 -20 27 -11 7 -20 17 -20 23 0 5 -14 24 -30 42 -17 18 -30 36
-30 40 0 5 -9 14 -20 21 -11 7 -20 17 -20 23 0 5 -10 20 -22 33 -13 13 -43 47
-68 76 -25 28 -50 57 -56 63 -6 7 -26 33 -46 59 -20 26 -39 44 -42 41 -3 -4
-6 1 -6 10 0 10 -8 17 -17 17 -9 0 -13 3 -10 6 4 4 -3 15 -15 25 -11 11 -19
19 -16 19 3 0 -23 30 -58 68 -35 37 -64 71 -64 76 0 5 -21 29 -46 53 -25 23
-42 43 -38 43 5 0 -4 9 -21 20 -16 11 -27 20 -24 20 4 0 -15 22 -42 49 -26 27
-45 51 -42 55 4 3 0 6 -8 7 -8 0 -30 20 -49 43 -19 24 -38 41 -42 39 -5 -2 -8
3 -8 12 0 9 -4 14 -9 10 -5 -3 -12 4 -16 15 -3 11 -14 20 -22 20 -9 0 -14 2
-11 5 7 7 -165 182 -174 177 -5 -2 -8 0 -8 5 0 13 -78 93 -91 93 -7 0 -10 2
-7 6 7 7 -45 61 -54 56 -5 -2 -8 1 -8 7 0 5 -30 39 -67 75 -165 161 -245 236
-253 236 -5 0 -12 9 -15 20 -3 11 -11 20 -17 20 -6 0 -18 7 -27 14 -9 8 -38
35 -65 60 -27 26 -50 46 -52 46 -2 0 -20 16 -40 36 -21 19 -53 47 -73 62 -20
15 -41 32 -47 38 -6 5 -31 26 -54 45 -23 18 -48 40 -55 47 -8 6 -18 12 -24 12
-6 0 -11 7 -11 15 0 8 -6 15 -13 15 -7 0 -20 8 -29 18 -20 20 -31 29 -84 68
-41 30 -51 39 -105 87 -17 15 -34 27 -38 27 -3 0 -26 18 -51 40 -25 23 -57 48
-72 57 -16 10 -28 21 -28 25 0 4 -4 8 -9 8 -6 0 -24 13 -42 30 -18 16 -35 28
-37 26 -2 -2 -20 11 -40 30 -20 19 -49 40 -64 46 -15 7 -24 16 -22 20 3 4 -4
8 -16 8 -12 0 -18 5 -15 10 3 6 2 10 -4 10 -5 0 -16 6 -23 13 -7 7 -29 23 -48
34 -32 20 -52 35 -97 73 -7 6 -13 8 -13 4 0 -4 -8 3 -19 14 -10 12 -22 22 -27
23 -5 0 -36 20 -69 45 -33 24 -68 47 -77 50 -10 4 -18 10 -18 15 0 5 -5 9 -11
9 -5 0 -24 13 -42 30 -18 16 -36 30 -41 30 -5 0 -39 23 -76 50 -37 28 -71 50
-74 50 -8 0 -88 61 -98 75 -5 7 -8 7 -8 0 0 -7 -3 -7 -8 0 -4 6 -27 24 -52 40
-25 16 -48 34 -52 40 -5 7 -8 7 -8 0 0 -5 -5 -2 -11 8 -5 9 -17 17 -24 17 -8
0 -15 5 -15 10 0 6 -7 10 -15 10 -8 0 -15 5 -15 10 0 6 -7 10 -15 10 -8 0 -15
5 -15 10 0 6 -5 10 -10 10 -12 0 -73 41 -78 53 -2 4 -8 7 -14 7 -5 0 -22 9
-38 20 -15 11 -30 17 -34 13 -3 -3 -6 -1 -6 5 0 6 -22 23 -50 38 -27 15 -50
32 -50 37 0 6 -3 7 -7 4 -3 -4 -12 -2 -20 4 -7 6 -13 8 -13 3 0 -5 -7 2 -16
14 -8 12 -21 22 -29 22 -7 0 -21 7 -29 16 -9 8 -16 12 -16 7 0 -4 -4 -3 -8 2
-9 13 -42 34 -64 41 -10 4 -18 11 -18 16 0 5 -4 7 -9 4 -4 -3 -19 3 -31 14
-13 11 -29 20 -37 20 -7 0 -13 5 -13 10 0 6 -6 10 -14 10 -8 0 -21 6 -28 13
-7 7 -17 14 -21 14 -5 0 -27 12 -49 27 -22 14 -44 26 -49 26 -5 0 -9 5 -9 11
0 5 -4 7 -10 4 -5 -3 -10 -1 -10 4 0 6 -4 11 -9 11 -6 0 -60 29 -121 65 -61
36 -115 65 -120 65 -4 0 -10 3 -12 8 -4 8 -63 43 -128 75 -25 12 -47 25 -50
28 -3 4 -36 22 -73 42 -37 19 -73 40 -80 45 -7 6 -14 10 -17 10 -12 0 -66 27
-72 37 -4 5 -8 6 -8 1 0 -5 -9 -1 -20 9 -11 10 -20 14 -20 10 0 -4 -9 0 -21
11 -12 10 -23 18 -25 17 -2 -2 -66 27 -141 63 -76 36 -158 75 -183 86 -107 50
-175 83 -180 89 -3 3 -13 5 -22 3 -10 -1 -18 2 -18 7 0 5 -12 14 -27 20 -32
12 -80 33 -138 60 -47 21 -118 52 -125 53 -3 1 -30 11 -60 23 -97 39 -202 63
-277 63 -41 0 -73 -4 -73 -10z"/>
<path d="M26459 4493 c-13 -17 -13 -17 6 -3 11 8 22 16 24 17 2 2 0 3 -6 3 -6
0 -17 -8 -24 -17z"/>
</g>
</svg>
